<svg xmlns="http://www.w3.org/2000/svg" viewBox="0 0 1920 1080">
    <rect width="100%" height="100%" fill="#fffbeb"/>
    <path d="M0 550 Q 240 450, 480 580 T 960 560 T 1440 650 T 1920 600 V 1080 H 0 Z" fill="#8ecae6" opacity="0.6"/>
    <path d="M0 600 Q 320 480, 640 620 T 1280 580 T 1920 700 V 1080 H 0 Z" fill="#99d98c" opacity="0.6"/>
    <path d="M0 650 Q 400 750, 800 680 T 1600 750 T 1920 700 V 1080 H 0 Z" fill="#b794de" opacity="0.5"/>
    <path d="M0 700 Q 480 800, 960 750 T 1920 650 V 1080 H 0 Z" fill="#f780a1" opacity="0.7"/>
    <path d="M0 750 Q 400 650, 800 780 T 1600 720 T 1920 850 V 1080 H 0 Z" fill="#219ebc" opacity="0.5"/>
    <path d="M0 800 Q 500 900, 1000 820 T 1920 900 V 1080 H 0 Z" fill="#fb8500" opacity="0.6"/>
    <path d="M0 850 Q 300 700, 700 850 T 1500 800 T 1920 920 V 1080 H 0 Z" fill="#ffb5a7" opacity="0.5"/>
    <path d="M0 900 Q 480 800, 960 920 T 1920 850 V 1080 H 0 Z" fill="#ffc300" opacity="0.5"/>
</svg> 